<svg width="64" height="64" viewBox="0 0 64 64" fill="none" xmlns="http://www.w3.org/2000/svg">
<path d="M17 40.2062L4.07813 46.0047C1.32813 47.2547 1.32813 49.3016 4.07813 50.5516L27.2031 61.0984C29.8422 62.3 34.1859 62.3 36.825 61.0984L59.95 50.5516C62.7 49.3016 62.7 47.2547 59.95 46.0047L47.4594 39.9938M59.9375 13.5078L36.6 2.86719C34.0703 1.71094 29.9297 1.71094 27.4 2.86719L4.07813 13.5078C1.32813 14.7578 1.32813 16.8031 4.07813 18.0531L27.2031 28.6C29.8422 29.8031 34.1859 29.8031 36.825 28.6L59.95 18.0531C62.6875 16.8031 62.6875 14.7562 59.9375 13.5078Z" stroke="#5D5E7A" stroke-width="3.5" stroke-linecap="round" stroke-linejoin="round"/>
</svg>
