<svg width="63" height="65" viewBox="0 0 63 65" fill="none" xmlns="http://www.w3.org/2000/svg">
<path d="M60.6202 19.8969C58.1109 19.9126 58.3577 24.5423 55.2312 22.3579C54.0702 21.5485 53.3562 20.3719 51.8984 20.0141C50.6249 19.7016 49.3202 20.0266 48.0624 20.2438C46.6327 20.4907 44.9374 20.6016 43.853 21.6844C42.8046 22.7266 42.2499 24.1251 41.1343 25.1735C38.9765 27.2048 38.0655 29.4219 39.4624 32.2938C40.8062 35.0548 43.6171 36.5532 46.6499 36.3563C49.6296 36.1579 52.7249 34.4298 52.639 38.7594C52.6077 40.2907 52.928 41.3532 53.3984 42.7766C53.8343 44.0891 53.8046 45.361 53.9046 46.7157C54.089 49.2469 54.5546 52.0844 55.8109 54.3204L58.1546 51.0141C58.4437 50.6048 59.0484 50.0313 59.1921 49.5485C59.4468 48.6938 58.9452 47.2251 58.8874 46.2673C58.8296 45.3094 58.8577 44.3391 58.7109 43.3813C58.5046 42.0391 57.7109 40.7813 57.6015 39.4548C57.3999 36.9844 57.8515 35.0126 55.9484 32.9469C54.1109 30.9548 51.4171 30.4766 48.8437 30.8813C47.5468 31.0844 42.3265 31.9188 44.4218 28.9548C44.8359 28.3719 45.5593 27.8938 46.0249 27.3391C46.4296 26.8563 46.7812 25.9688 47.2562 25.5923C47.7312 25.2157 49.9124 24.7829 50.5374 24.9751C51.1624 25.1673 51.814 26.0688 52.3562 26.4688C53.3579 27.2233 54.5269 27.725 55.764 27.9313C57.8984 28.2438 62.3609 27.0032 62.3265 24.2657C62.3202 22.9532 61.1015 21.1251 60.6202 19.8969V19.8969ZM35.914 42.4219C35.0812 38.9157 30.3171 37.7438 27.7484 35.8423C26.2718 34.7485 24.9577 33.0594 23.0187 32.9219C22.1249 32.8579 21.3765 33.0516 20.4905 32.8219C19.678 32.6126 19.0405 32.1751 18.1749 32.2891C16.5577 32.5016 15.5374 34.2298 13.7999 33.9954C12.1515 33.7735 10.453 31.8454 10.078 30.2751C9.59679 28.2563 11.1937 27.6016 12.9046 27.4219C13.6187 27.3469 14.4202 27.2657 15.1062 27.5266C16.0093 27.8626 16.4359 28.7469 17.2468 29.1938C18.7671 30.0266 19.0749 28.6954 18.8421 27.3454C18.4937 25.3235 18.0874 24.4985 19.8905 23.1079C21.1405 22.1485 22.2093 21.4548 22.0093 19.7313C21.8905 18.7188 21.3359 18.261 21.853 17.2532C22.2452 16.486 23.3218 15.7938 24.0234 15.336C25.8343 14.1548 31.7812 14.2423 29.3515 10.936C28.6374 9.9657 27.3202 8.23132 26.0702 7.99382C24.5077 7.69851 23.814 9.44226 22.7249 10.211C21.5999 11.0063 19.4093 11.9094 18.2827 10.6798C16.7671 9.02507 19.2874 8.48132 19.8452 7.32663C20.403 6.17195 18.553 3.98913 17.5624 3.43601L12.9046 8.65945C12.7708 9.53422 12.8174 10.4271 13.0415 11.2832C13.2656 12.1393 13.6625 12.9405 14.2077 13.6376C15.1343 14.8298 16.6093 15.2126 16.6765 16.8407C16.7421 18.4032 16.4984 19.2032 15.4765 20.3016C15.0343 20.7704 14.7218 21.436 14.2718 21.8751C13.7202 22.411 13.9249 22.2469 13.064 22.3938C11.4452 22.6673 10.0671 23.0891 8.50304 23.5204C5.89679 24.2407 5.65617 19.9829 4.46867 18.3126L0.562419 21.4673C0.520232 21.9844 1.20304 22.936 1.38898 23.4985C2.45617 26.7126 4.60929 29.1985 5.99992 32.2735C7.46398 35.5298 11.3952 34.6266 13.1312 37.4798C14.6718 40.011 13.0265 43.2157 14.1796 45.8657C15.0171 47.7891 16.9921 48.2094 18.3546 49.6157C19.7468 51.036 19.7171 52.9798 19.9296 54.8282C20.1693 57.0023 20.5582 59.1574 21.0937 61.2782C21.2827 62.011 21.4562 62.9798 21.9577 63.5844C22.3015 64.0001 23.4812 64.3579 23.0046 64.4954C23.6702 64.6048 24.8562 65.2266 25.4109 64.7704C26.1421 64.1704 25.9468 62.3235 26.0734 61.4891C26.453 59.0048 27.6968 56.5751 29.3749 54.7157C31.0327 52.8813 33.3046 51.6391 34.7046 49.5594C36.0687 47.5313 36.4796 44.7954 35.914 42.4219V42.4219ZM30.6968 46.5344C29.7593 48.2079 27.6718 49.3282 26.3296 50.6579C25.9655 51.0188 25.1905 52.2688 24.7343 51.9985C24.4077 51.8048 24.2968 50.1829 24.1765 49.811C23.5558 47.9384 22.3709 46.3038 20.7843 45.1313C20.2952 44.761 19.0827 44.2798 18.803 43.7719C18.4905 43.2204 18.7718 41.9188 18.7827 41.3188C18.7999 40.4438 18.4015 38.9891 18.6171 38.1938C18.8671 37.2766 18.3859 37.8298 19.2062 37.6485C19.639 37.5516 21.4265 37.8657 21.9655 37.9782C22.8218 38.1563 23.2937 38.6891 23.9687 39.2282C25.7437 40.6516 27.6984 41.7532 29.6874 42.8438C31.228 43.6969 31.6812 44.7766 30.6968 46.5344ZM19.8218 3.48288C20.5624 4.20632 21.2593 5.06257 22.364 5.13445C23.4093 5.20476 24.3952 4.63913 25.3077 5.35007C26.3202 6.13132 27.0499 7.12038 28.3937 7.36413C29.6937 7.60007 31.0702 6.8407 31.3921 5.51101C31.7046 4.24382 31.0312 2.86569 30.9905 1.59382C30.9905 1.41726 31.0859 0.632882 30.964 0.50007C30.8734 0.40007 30.1171 0.51257 30.0015 0.515695C29.1546 0.540695 28.3098 0.599028 27.4671 0.690695C24.395 1.02322 21.3863 1.79407 18.5327 2.97976C18.9124 3.24226 19.389 3.34694 19.8218 3.48288V3.48288ZM46.6874 12.261C48.014 12.261 49.3609 11.6673 48.9327 10.1329C48.5734 8.84695 47.9609 7.45163 46.4702 8.14538C45.5218 8.58601 44.178 9.70788 44.0671 10.8204C43.9405 12.0829 45.803 12.261 46.6874 12.261ZM45.628 18.9751C46.9827 19.786 48.9921 19.4048 50.014 18.2469C50.8124 17.3407 51.2827 15.7673 52.7187 15.7688C53.3508 15.7675 53.9582 16.015 54.4093 16.4579C55.003 17.0719 54.8859 17.6485 55.0124 18.4173C55.2952 20.1438 57.1468 18.5157 57.6296 17.8469C57.9421 17.411 58.3655 16.7641 58.2234 16.1969C58.0921 15.6673 57.4734 15.1032 57.1984 14.6173C56.3952 13.211 55.7343 11.5751 54.5312 10.4391C53.3734 9.34538 51.9499 9.47195 50.8515 10.6079C49.9515 11.5454 48.9062 12.2876 48.2905 13.4282C47.8562 14.2298 47.3671 14.6126 46.4874 14.8204C46.003 14.9344 45.4499 14.9766 45.0437 15.3016C43.9124 16.1923 44.5562 18.3313 45.628 18.9751V18.9751Z" fill="#5D5E7A"/>
</svg>
