<svg width="205" height="126" viewBox="0 0 205 126" fill="none" xmlns="http://www.w3.org/2000/svg">
<g opacity="0.15">
<rect width="6" height="6" rx="3" fill="#5C63EF"/>
<rect x="13.2632" width="6" height="6" rx="3" fill="#5C63EF"/>
<rect x="26.5264" width="6" height="6" rx="3" fill="#5C63EF"/>
<rect x="39.7894" width="6" height="6" rx="3" fill="#5C63EF"/>
<rect x="53.0526" width="6" height="6" rx="3" fill="#5C63EF"/>
<rect x="66.3158" width="6" height="6" rx="3" fill="#5C63EF"/>
<rect x="79.579" width="6" height="6" rx="3" fill="#5C63EF"/>
<rect x="92.842" width="6" height="6" rx="3" fill="#5C63EF"/>
<rect x="106.105" width="6" height="6" rx="3" fill="#5C63EF"/>
<rect x="119.368" width="6" height="6" rx="3" fill="#5C63EF"/>
<rect x="132.632" width="6" height="6" rx="3" fill="#5C63EF"/>
<rect x="145.895" width="6" height="6" rx="3" fill="#5C63EF"/>
<rect x="159.158" width="6" height="6" rx="3" fill="#5C63EF"/>
<rect x="172.421" width="6" height="6" rx="3" fill="#5C63EF"/>
<rect x="185.684" width="6" height="6" rx="3" fill="#5C63EF"/>
<rect x="198.947" width="6" height="6" rx="3" fill="#5C63EF"/>
<rect y="13.2632" width="6" height="6" rx="3" fill="#5C63EF"/>
<rect x="13.2632" y="13.2632" width="6" height="6" rx="3" fill="#5C63EF"/>
<rect x="26.5264" y="13.2632" width="6" height="6" rx="3" fill="#5C63EF"/>
<rect x="39.7894" y="13.2632" width="6" height="6" rx="3" fill="#5C63EF"/>
<rect x="53.0526" y="13.2632" width="6" height="6" rx="3" fill="#5C63EF"/>
<rect x="66.3158" y="13.2632" width="6" height="6" rx="3" fill="#5C63EF"/>
<rect x="79.579" y="13.2632" width="6" height="6" rx="3" fill="#5C63EF"/>
<rect x="92.842" y="13.2632" width="6" height="6" rx="3" fill="#5C63EF"/>
<rect x="106.105" y="13.2632" width="6" height="6" rx="3" fill="#5C63EF"/>
<rect x="119.368" y="13.2632" width="6" height="6" rx="3" fill="#5C63EF"/>
<rect x="132.632" y="13.2632" width="6" height="6" rx="3" fill="#5C63EF"/>
<rect x="145.895" y="13.2632" width="6" height="6" rx="3" fill="#5C63EF"/>
<rect x="159.158" y="13.2632" width="6" height="6" rx="3" fill="#5C63EF"/>
<rect x="172.421" y="13.2632" width="6" height="6" rx="3" fill="#5C63EF"/>
<rect x="185.684" y="13.2632" width="6" height="6" rx="3" fill="#5C63EF"/>
<rect x="198.947" y="13.2632" width="6" height="6" rx="3" fill="#5C63EF"/>
<rect y="26.5264" width="6" height="6" rx="3" fill="#5C63EF"/>
<rect x="13.2632" y="26.5264" width="6" height="6" rx="3" fill="#5C63EF"/>
<rect x="26.5264" y="26.5264" width="6" height="6" rx="3" fill="#5C63EF"/>
<rect x="39.7894" y="26.5264" width="6" height="6" rx="3" fill="#5C63EF"/>
<rect x="53.0526" y="26.5264" width="6" height="6" rx="3" fill="#5C63EF"/>
<rect x="66.3158" y="26.5264" width="6" height="6" rx="3" fill="#5C63EF"/>
<rect x="79.579" y="26.5264" width="6" height="6" rx="3" fill="#5C63EF"/>
<rect x="92.842" y="26.5264" width="6" height="6" rx="3" fill="#5C63EF"/>
<rect x="106.105" y="26.5264" width="6" height="6" rx="3" fill="#5C63EF"/>
<rect x="119.368" y="26.5264" width="6" height="6" rx="3" fill="#5C63EF"/>
<rect x="132.632" y="26.5264" width="6" height="6" rx="3" fill="#5C63EF"/>
<rect x="145.895" y="26.5264" width="6" height="6" rx="3" fill="#5C63EF"/>
<rect x="159.158" y="26.5264" width="6" height="6" rx="3" fill="#5C63EF"/>
<rect x="172.421" y="26.5264" width="6" height="6" rx="3" fill="#5C63EF"/>
<rect x="185.684" y="26.5264" width="6" height="6" rx="3" fill="#5C63EF"/>
<rect x="198.947" y="26.5264" width="6" height="6" rx="3" fill="#5C63EF"/>
<rect y="39.7896" width="6" height="6" rx="3" fill="#5C63EF"/>
<rect x="13.2632" y="39.7896" width="6" height="6" rx="3" fill="#5C63EF"/>
<rect x="26.5264" y="39.7896" width="6" height="6" rx="3" fill="#5C63EF"/>
<rect x="39.7894" y="39.7896" width="6" height="6" rx="3" fill="#5C63EF"/>
<rect x="53.0526" y="39.7896" width="6" height="6" rx="3" fill="#5C63EF"/>
<rect x="66.3158" y="39.7896" width="6" height="6" rx="3" fill="#5C63EF"/>
<rect x="79.579" y="39.7896" width="6" height="6" rx="3" fill="#5C63EF"/>
<rect x="92.842" y="39.7896" width="6" height="6" rx="3" fill="#5C63EF"/>
<rect x="106.105" y="39.7896" width="6" height="6" rx="3" fill="#5C63EF"/>
<rect x="119.368" y="39.7896" width="6" height="6" rx="3" fill="#5C63EF"/>
<rect x="132.632" y="39.7896" width="6" height="6" rx="3" fill="#5C63EF"/>
<rect x="145.895" y="39.7896" width="6" height="6" rx="3" fill="#5C63EF"/>
<rect x="159.158" y="39.7896" width="6" height="6" rx="3" fill="#5C63EF"/>
<rect x="172.421" y="39.7896" width="6" height="6" rx="3" fill="#5C63EF"/>
<rect x="185.684" y="39.7896" width="6" height="6" rx="3" fill="#5C63EF"/>
<rect x="198.947" y="39.7896" width="6" height="6" rx="3" fill="#5C63EF"/>
<rect y="53.0527" width="6" height="6" rx="3" fill="#5C63EF"/>
<rect x="13.2632" y="53.0527" width="6" height="6" rx="3" fill="#5C63EF"/>
<rect x="26.5264" y="53.0527" width="6" height="6" rx="3" fill="#5C63EF"/>
<rect x="39.7894" y="53.0527" width="6" height="6" rx="3" fill="#5C63EF"/>
<rect x="53.0526" y="53.0527" width="6" height="6" rx="3" fill="#5C63EF"/>
<rect x="66.3158" y="53.0527" width="6" height="6" rx="3" fill="#5C63EF"/>
<rect x="79.579" y="53.0527" width="6" height="6" rx="3" fill="#5C63EF"/>
<rect x="92.842" y="53.0527" width="6" height="6" rx="3" fill="#5C63EF"/>
<rect x="106.105" y="53.0527" width="6" height="6" rx="3" fill="#5C63EF"/>
<rect x="119.368" y="53.0527" width="6" height="6" rx="3" fill="#5C63EF"/>
<rect x="132.632" y="53.0527" width="6" height="6" rx="3" fill="#5C63EF"/>
<rect x="145.895" y="53.0527" width="6" height="6" rx="3" fill="#5C63EF"/>
<rect x="159.158" y="53.0527" width="6" height="6" rx="3" fill="#5C63EF"/>
<rect x="172.421" y="53.0527" width="6" height="6" rx="3" fill="#5C63EF"/>
<rect x="185.684" y="53.0527" width="6" height="6" rx="3" fill="#5C63EF"/>
<rect x="198.947" y="53.0527" width="6" height="6" rx="3" fill="#5C63EF"/>
<rect y="66.3157" width="6" height="6" rx="3" fill="#5C63EF"/>
<rect x="13.2632" y="66.3157" width="6" height="6" rx="3" fill="#5C63EF"/>
<rect x="26.5264" y="66.3157" width="6" height="6" rx="3" fill="#5C63EF"/>
<rect x="39.7894" y="66.3157" width="6" height="6" rx="3" fill="#5C63EF"/>
<rect x="53.0526" y="66.3157" width="6" height="6" rx="3" fill="#5C63EF"/>
<rect x="66.3158" y="66.3157" width="6" height="6" rx="3" fill="#5C63EF"/>
<rect x="79.579" y="66.3157" width="6" height="6" rx="3" fill="#5C63EF"/>
<rect x="92.842" y="66.3157" width="6" height="6" rx="3" fill="#5C63EF"/>
<rect x="106.105" y="66.3157" width="6" height="6" rx="3" fill="#5C63EF"/>
<rect x="119.368" y="66.3157" width="6" height="6" rx="3" fill="#5C63EF"/>
<rect x="132.632" y="66.3157" width="6" height="6" rx="3" fill="#5C63EF"/>
<rect x="145.895" y="66.3157" width="6" height="6" rx="3" fill="#5C63EF"/>
<rect x="159.158" y="66.3157" width="6" height="6" rx="3" fill="#5C63EF"/>
<rect x="172.421" y="66.3157" width="6" height="6" rx="3" fill="#5C63EF"/>
<rect x="185.684" y="66.3157" width="6" height="6" rx="3" fill="#5C63EF"/>
<rect x="198.947" y="66.3157" width="6" height="6" rx="3" fill="#5C63EF"/>
<rect y="79.5789" width="6" height="6" rx="3" fill="#5C63EF"/>
<rect x="13.2632" y="79.5789" width="6" height="6" rx="3" fill="#5C63EF"/>
<rect x="26.5264" y="79.5789" width="6" height="6" rx="3" fill="#5C63EF"/>
<rect x="39.7894" y="79.5789" width="6" height="6" rx="3" fill="#5C63EF"/>
<rect x="53.0526" y="79.5789" width="6" height="6" rx="3" fill="#5C63EF"/>
<rect x="66.3158" y="79.5789" width="6" height="6" rx="3" fill="#5C63EF"/>
<rect x="79.579" y="79.5789" width="6" height="6" rx="3" fill="#5C63EF"/>
<rect x="92.842" y="79.5789" width="6" height="6" rx="3" fill="#5C63EF"/>
<rect x="106.105" y="79.5789" width="6" height="6" rx="3" fill="#5C63EF"/>
<rect x="119.368" y="79.5789" width="6" height="6" rx="3" fill="#5C63EF"/>
<rect x="132.632" y="79.5789" width="6" height="6" rx="3" fill="#5C63EF"/>
<rect x="145.895" y="79.5789" width="6" height="6" rx="3" fill="#5C63EF"/>
<rect x="159.158" y="79.5789" width="6" height="6" rx="3" fill="#5C63EF"/>
<rect x="172.421" y="79.5789" width="6" height="6" rx="3" fill="#5C63EF"/>
<rect x="185.684" y="79.5789" width="6" height="6" rx="3" fill="#5C63EF"/>
<rect x="198.947" y="79.5789" width="6" height="6" rx="3" fill="#5C63EF"/>
<rect y="92.842" width="6" height="6" rx="3" fill="#5C63EF"/>
<rect x="13.2632" y="92.842" width="6" height="6" rx="3" fill="#5C63EF"/>
<rect x="26.5264" y="92.842" width="6" height="6" rx="3" fill="#5C63EF"/>
<rect x="39.7894" y="92.842" width="6" height="6" rx="3" fill="#5C63EF"/>
<rect x="53.0526" y="92.842" width="6" height="6" rx="3" fill="#5C63EF"/>
<rect x="66.3158" y="92.842" width="6" height="6" rx="3" fill="#5C63EF"/>
<rect x="79.579" y="92.842" width="6" height="6" rx="3" fill="#5C63EF"/>
<rect x="92.842" y="92.842" width="6" height="6" rx="3" fill="#5C63EF"/>
<rect x="106.105" y="92.842" width="6" height="6" rx="3" fill="#5C63EF"/>
<rect x="119.368" y="92.842" width="6" height="6" rx="3" fill="#5C63EF"/>
<rect x="132.632" y="92.842" width="6" height="6" rx="3" fill="#5C63EF"/>
<rect x="145.895" y="92.842" width="6" height="6" rx="3" fill="#5C63EF"/>
<rect x="159.158" y="92.842" width="6" height="6" rx="3" fill="#5C63EF"/>
<rect x="172.421" y="92.842" width="6" height="6" rx="3" fill="#5C63EF"/>
<rect x="185.684" y="92.842" width="6" height="6" rx="3" fill="#5C63EF"/>
<rect x="198.947" y="92.842" width="6" height="6" rx="3" fill="#5C63EF"/>
<rect y="106.105" width="6" height="6" rx="3" fill="#5C63EF"/>
<rect x="13.2632" y="106.105" width="6" height="6" rx="3" fill="#5C63EF"/>
<rect x="26.5264" y="106.105" width="6" height="6" rx="3" fill="#5C63EF"/>
<rect x="39.7894" y="106.105" width="6" height="6" rx="3" fill="#5C63EF"/>
<rect x="53.0526" y="106.105" width="6" height="6" rx="3" fill="#5C63EF"/>
<rect x="66.3158" y="106.105" width="6" height="6" rx="3" fill="#5C63EF"/>
<rect x="79.579" y="106.105" width="6" height="6" rx="3" fill="#5C63EF"/>
<rect x="92.842" y="106.105" width="6" height="6" rx="3" fill="#5C63EF"/>
<rect x="106.105" y="106.105" width="6" height="6" rx="3" fill="#5C63EF"/>
<rect x="119.368" y="106.105" width="6" height="6" rx="3" fill="#5C63EF"/>
<rect x="132.632" y="106.105" width="6" height="6" rx="3" fill="#5C63EF"/>
<rect x="145.895" y="106.105" width="6" height="6" rx="3" fill="#5C63EF"/>
<rect x="159.158" y="106.105" width="6" height="6" rx="3" fill="#5C63EF"/>
<rect x="172.421" y="106.105" width="6" height="6" rx="3" fill="#5C63EF"/>
<rect x="185.684" y="106.105" width="6" height="6" rx="3" fill="#5C63EF"/>
<rect x="198.947" y="106.105" width="6" height="6" rx="3" fill="#5C63EF"/>
<rect y="119.368" width="6" height="6" rx="3" fill="#5C63EF"/>
<rect x="13.2632" y="119.368" width="6" height="6" rx="3" fill="#5C63EF"/>
<rect x="26.5264" y="119.368" width="6" height="6" rx="3" fill="#5C63EF"/>
<rect x="39.7894" y="119.368" width="6" height="6" rx="3" fill="#5C63EF"/>
<rect x="53.0526" y="119.368" width="6" height="6" rx="3" fill="#5C63EF"/>
<rect x="66.3158" y="119.368" width="6" height="6" rx="3" fill="#5C63EF"/>
<rect x="79.579" y="119.368" width="6" height="6" rx="3" fill="#5C63EF"/>
<rect x="92.842" y="119.368" width="6" height="6" rx="3" fill="#5C63EF"/>
<rect x="106.105" y="119.368" width="6" height="6" rx="3" fill="#5C63EF"/>
<rect x="119.368" y="119.368" width="6" height="6" rx="3" fill="#5C63EF"/>
<rect x="132.632" y="119.368" width="6" height="6" rx="3" fill="#5C63EF"/>
<rect x="145.895" y="119.368" width="6" height="6" rx="3" fill="#5C63EF"/>
<rect x="159.158" y="119.368" width="6" height="6" rx="3" fill="#5C63EF"/>
<rect x="172.421" y="119.368" width="6" height="6" rx="3" fill="#5C63EF"/>
<rect x="185.684" y="119.368" width="6" height="6" rx="3" fill="#5C63EF"/>
<rect x="198.947" y="119.368" width="6" height="6" rx="3" fill="#5C63EF"/>
</g>
</svg>
