<svg width="448" height="272" viewBox="0 0 448 272" fill="none" xmlns="http://www.w3.org/2000/svg">
<g opacity="0.15">
<rect width="8" height="8" rx="4" fill="#5C63EF"/>
<rect x="29.2969" width="8" height="8" rx="4" fill="#5C63EF"/>
<rect x="58.5935" width="8" height="8" rx="4" fill="#5C63EF"/>
<rect x="87.8909" width="8" height="8" rx="4" fill="#5C63EF"/>
<rect x="117.188" width="8" height="8" rx="4" fill="#5C63EF"/>
<rect x="146.484" width="8" height="8" rx="4" fill="#5C63EF"/>
<rect x="175.781" width="8" height="8" rx="4" fill="#5C63EF"/>
<rect x="205.079" width="8" height="8" rx="4" fill="#5C63EF"/>
<rect x="234.375" width="8" height="8" rx="4" fill="#5C63EF"/>
<rect x="263.672" width="8" height="8" rx="4" fill="#5C63EF"/>
<rect x="292.969" width="8" height="8" rx="4" fill="#5C63EF"/>
<rect x="322.267" width="8" height="8" rx="4" fill="#5C63EF"/>
<rect x="351.563" width="8" height="8" rx="4" fill="#5C63EF"/>
<rect x="380.86" width="8" height="8" rx="4" fill="#5C63EF"/>
<rect x="410.156" width="8" height="8" rx="4" fill="#5C63EF"/>
<rect x="439.453" width="8" height="8" rx="4" fill="#5C63EF"/>
<rect y="29.2969" width="8" height="8" rx="4" fill="#5C63EF"/>
<rect x="29.2969" y="29.2969" width="8" height="8" rx="4" fill="#5C63EF"/>
<rect x="58.5935" y="29.2969" width="8" height="8" rx="4" fill="#5C63EF"/>
<rect x="87.8909" y="29.2969" width="8" height="8" rx="4" fill="#5C63EF"/>
<rect x="117.188" y="29.2969" width="8" height="8" rx="4" fill="#5C63EF"/>
<rect x="146.484" y="29.2969" width="8" height="8" rx="4" fill="#5C63EF"/>
<rect x="175.781" y="29.2969" width="8" height="8" rx="4" fill="#5C63EF"/>
<rect x="205.079" y="29.2969" width="8" height="8" rx="4" fill="#5C63EF"/>
<rect x="234.375" y="29.2969" width="8" height="8" rx="4" fill="#5C63EF"/>
<rect x="263.672" y="29.2969" width="8" height="8" rx="4" fill="#5C63EF"/>
<rect x="292.969" y="29.2969" width="8" height="8" rx="4" fill="#5C63EF"/>
<rect x="322.267" y="29.2969" width="8" height="8" rx="4" fill="#5C63EF"/>
<rect x="351.563" y="29.2969" width="8" height="8" rx="4" fill="#5C63EF"/>
<rect x="380.86" y="29.2969" width="8" height="8" rx="4" fill="#5C63EF"/>
<rect x="410.156" y="29.2969" width="8" height="8" rx="4" fill="#5C63EF"/>
<rect x="439.453" y="29.2969" width="8" height="8" rx="4" fill="#5C63EF"/>
<rect y="58.5935" width="8" height="8" rx="4" fill="#5C63EF"/>
<rect x="29.2969" y="58.5935" width="8" height="8" rx="4" fill="#5C63EF"/>
<rect x="58.5935" y="58.5935" width="8" height="8" rx="4" fill="#5C63EF"/>
<rect x="87.8909" y="58.5935" width="8" height="8" rx="4" fill="#5C63EF"/>
<rect x="117.188" y="58.5935" width="8" height="8" rx="4" fill="#5C63EF"/>
<rect x="146.484" y="58.5935" width="8" height="8" rx="4" fill="#5C63EF"/>
<rect x="175.781" y="58.5935" width="8" height="8" rx="4" fill="#5C63EF"/>
<rect x="205.079" y="58.5935" width="8" height="8" rx="4" fill="#5C63EF"/>
<rect x="234.375" y="58.5935" width="8" height="8" rx="4" fill="#5C63EF"/>
<rect x="263.672" y="58.5935" width="8" height="8" rx="4" fill="#5C63EF"/>
<rect x="292.969" y="58.5935" width="8" height="8" rx="4" fill="#5C63EF"/>
<rect x="322.267" y="58.5935" width="8" height="8" rx="4" fill="#5C63EF"/>
<rect x="351.563" y="58.5935" width="8" height="8" rx="4" fill="#5C63EF"/>
<rect x="380.86" y="58.5935" width="8" height="8" rx="4" fill="#5C63EF"/>
<rect x="410.156" y="58.5935" width="8" height="8" rx="4" fill="#5C63EF"/>
<rect x="439.453" y="58.5935" width="8" height="8" rx="4" fill="#5C63EF"/>
<rect y="87.8906" width="8" height="8" rx="4" fill="#5C63EF"/>
<rect x="29.2969" y="87.8906" width="8" height="8" rx="4" fill="#5C63EF"/>
<rect x="58.5935" y="87.8906" width="8" height="8" rx="4" fill="#5C63EF"/>
<rect x="87.8909" y="87.8906" width="8" height="8" rx="4" fill="#5C63EF"/>
<rect x="117.188" y="87.8906" width="8" height="8" rx="4" fill="#5C63EF"/>
<rect x="146.484" y="87.8906" width="8" height="8" rx="4" fill="#5C63EF"/>
<rect x="175.781" y="87.8906" width="8" height="8" rx="4" fill="#5C63EF"/>
<rect x="205.079" y="87.8906" width="8" height="8" rx="4" fill="#5C63EF"/>
<rect x="234.375" y="87.8906" width="8" height="8" rx="4" fill="#5C63EF"/>
<rect x="263.672" y="87.8906" width="8" height="8" rx="4" fill="#5C63EF"/>
<rect x="292.969" y="87.8906" width="8" height="8" rx="4" fill="#5C63EF"/>
<rect x="322.267" y="87.8906" width="8" height="8" rx="4" fill="#5C63EF"/>
<rect x="351.563" y="87.8906" width="8" height="8" rx="4" fill="#5C63EF"/>
<rect x="380.86" y="87.8906" width="8" height="8" rx="4" fill="#5C63EF"/>
<rect x="410.156" y="87.8906" width="8" height="8" rx="4" fill="#5C63EF"/>
<rect x="439.453" y="87.8906" width="8" height="8" rx="4" fill="#5C63EF"/>
<rect y="117.188" width="8" height="8" rx="4" fill="#5C63EF"/>
<rect x="29.2969" y="117.188" width="8" height="8" rx="4" fill="#5C63EF"/>
<rect x="58.5935" y="117.188" width="8" height="8" rx="4" fill="#5C63EF"/>
<rect x="87.8909" y="117.188" width="8" height="8" rx="4" fill="#5C63EF"/>
<rect x="117.188" y="117.188" width="8" height="8" rx="4" fill="#5C63EF"/>
<rect x="146.484" y="117.188" width="8" height="8" rx="4" fill="#5C63EF"/>
<rect x="175.781" y="117.188" width="8" height="8" rx="4" fill="#5C63EF"/>
<rect x="205.079" y="117.188" width="8" height="8" rx="4" fill="#5C63EF"/>
<rect x="234.375" y="117.188" width="8" height="8" rx="4" fill="#5C63EF"/>
<rect x="263.672" y="117.188" width="8" height="8" rx="4" fill="#5C63EF"/>
<rect x="292.969" y="117.188" width="8" height="8" rx="4" fill="#5C63EF"/>
<rect x="322.267" y="117.188" width="8" height="8" rx="4" fill="#5C63EF"/>
<rect x="351.563" y="117.188" width="8" height="8" rx="4" fill="#5C63EF"/>
<rect x="380.86" y="117.188" width="8" height="8" rx="4" fill="#5C63EF"/>
<rect x="410.156" y="117.188" width="8" height="8" rx="4" fill="#5C63EF"/>
<rect x="439.453" y="117.188" width="8" height="8" rx="4" fill="#5C63EF"/>
<rect y="146.484" width="8" height="8" rx="4" fill="#5C63EF"/>
<rect x="29.2969" y="146.484" width="8" height="8" rx="4" fill="#5C63EF"/>
<rect x="58.5935" y="146.484" width="8" height="8" rx="4" fill="#5C63EF"/>
<rect x="87.8909" y="146.484" width="8" height="8" rx="4" fill="#5C63EF"/>
<rect x="117.188" y="146.484" width="8" height="8" rx="4" fill="#5C63EF"/>
<rect x="146.484" y="146.484" width="8" height="8" rx="4" fill="#5C63EF"/>
<rect x="175.781" y="146.484" width="8" height="8" rx="4" fill="#5C63EF"/>
<rect x="205.079" y="146.484" width="8" height="8" rx="4" fill="#5C63EF"/>
<rect x="234.375" y="146.484" width="8" height="8" rx="4" fill="#5C63EF"/>
<rect x="263.672" y="146.484" width="8" height="8" rx="4" fill="#5C63EF"/>
<rect x="292.969" y="146.484" width="8" height="8" rx="4" fill="#5C63EF"/>
<rect x="322.267" y="146.484" width="8" height="8" rx="4" fill="#5C63EF"/>
<rect x="351.563" y="146.484" width="8" height="8" rx="4" fill="#5C63EF"/>
<rect x="380.86" y="146.484" width="8" height="8" rx="4" fill="#5C63EF"/>
<rect x="410.156" y="146.484" width="8" height="8" rx="4" fill="#5C63EF"/>
<rect x="439.453" y="146.484" width="8" height="8" rx="4" fill="#5C63EF"/>
<rect y="175.781" width="8" height="8" rx="4" fill="#5C63EF"/>
<rect x="29.2969" y="175.781" width="8" height="8" rx="4" fill="#5C63EF"/>
<rect x="58.5935" y="175.781" width="8" height="8" rx="4" fill="#5C63EF"/>
<rect x="87.8909" y="175.781" width="8" height="8" rx="4" fill="#5C63EF"/>
<rect x="117.188" y="175.781" width="8" height="8" rx="4" fill="#5C63EF"/>
<rect x="146.484" y="175.781" width="8" height="8" rx="4" fill="#5C63EF"/>
<rect x="175.781" y="175.781" width="8" height="8" rx="4" fill="#5C63EF"/>
<rect x="205.079" y="175.781" width="8" height="8" rx="4" fill="#5C63EF"/>
<rect x="234.375" y="175.781" width="8" height="8" rx="4" fill="#5C63EF"/>
<rect x="263.672" y="175.781" width="8" height="8" rx="4" fill="#5C63EF"/>
<rect x="292.969" y="175.781" width="8" height="8" rx="4" fill="#5C63EF"/>
<rect x="322.267" y="175.781" width="8" height="8" rx="4" fill="#5C63EF"/>
<rect x="351.563" y="175.781" width="8" height="8" rx="4" fill="#5C63EF"/>
<rect x="380.86" y="175.781" width="8" height="8" rx="4" fill="#5C63EF"/>
<rect x="410.156" y="175.781" width="8" height="8" rx="4" fill="#5C63EF"/>
<rect x="439.453" y="175.781" width="8" height="8" rx="4" fill="#5C63EF"/>
<rect y="205.079" width="8" height="8" rx="4" fill="#5C63EF"/>
<rect x="29.2969" y="205.079" width="8" height="8" rx="4" fill="#5C63EF"/>
<rect x="58.5935" y="205.079" width="8" height="8" rx="4" fill="#5C63EF"/>
<rect x="87.8909" y="205.079" width="8" height="8" rx="4" fill="#5C63EF"/>
<rect x="117.188" y="205.079" width="8" height="8" rx="4" fill="#5C63EF"/>
<rect x="146.484" y="205.079" width="8" height="8" rx="4" fill="#5C63EF"/>
<rect x="175.781" y="205.079" width="8" height="8" rx="4" fill="#5C63EF"/>
<rect x="205.079" y="205.079" width="8" height="8" rx="4" fill="#5C63EF"/>
<rect x="234.375" y="205.079" width="8" height="8" rx="4" fill="#5C63EF"/>
<rect x="263.672" y="205.079" width="8" height="8" rx="4" fill="#5C63EF"/>
<rect x="292.969" y="205.079" width="8" height="8" rx="4" fill="#5C63EF"/>
<rect x="322.267" y="205.079" width="8" height="8" rx="4" fill="#5C63EF"/>
<rect x="351.563" y="205.079" width="8" height="8" rx="4" fill="#5C63EF"/>
<rect x="380.86" y="205.079" width="8" height="8" rx="4" fill="#5C63EF"/>
<rect x="410.156" y="205.079" width="8" height="8" rx="4" fill="#5C63EF"/>
<rect x="439.453" y="205.079" width="8" height="8" rx="4" fill="#5C63EF"/>
<rect y="234.375" width="8" height="8" rx="4" fill="#5C63EF"/>
<rect x="29.2969" y="234.375" width="8" height="8" rx="4" fill="#5C63EF"/>
<rect x="58.5935" y="234.375" width="8" height="8" rx="4" fill="#5C63EF"/>
<rect x="87.8909" y="234.375" width="8" height="8" rx="4" fill="#5C63EF"/>
<rect x="117.188" y="234.375" width="8" height="8" rx="4" fill="#5C63EF"/>
<rect x="146.484" y="234.375" width="8" height="8" rx="4" fill="#5C63EF"/>
<rect x="175.781" y="234.375" width="8" height="8" rx="4" fill="#5C63EF"/>
<rect x="205.079" y="234.375" width="8" height="8" rx="4" fill="#5C63EF"/>
<rect x="234.375" y="234.375" width="8" height="8" rx="4" fill="#5C63EF"/>
<rect x="263.672" y="234.375" width="8" height="8" rx="4" fill="#5C63EF"/>
<rect x="292.969" y="234.375" width="8" height="8" rx="4" fill="#5C63EF"/>
<rect x="322.267" y="234.375" width="8" height="8" rx="4" fill="#5C63EF"/>
<rect x="351.563" y="234.375" width="8" height="8" rx="4" fill="#5C63EF"/>
<rect x="380.86" y="234.375" width="8" height="8" rx="4" fill="#5C63EF"/>
<rect x="410.156" y="234.375" width="8" height="8" rx="4" fill="#5C63EF"/>
<rect x="439.453" y="234.375" width="8" height="8" rx="4" fill="#5C63EF"/>
<rect y="263.672" width="8" height="8" rx="4" fill="#5C63EF"/>
<rect x="29.2969" y="263.672" width="8" height="8" rx="4" fill="#5C63EF"/>
<rect x="58.5935" y="263.672" width="8" height="8" rx="4" fill="#5C63EF"/>
<rect x="87.8909" y="263.672" width="8" height="8" rx="4" fill="#5C63EF"/>
<rect x="117.188" y="263.672" width="8" height="8" rx="4" fill="#5C63EF"/>
<rect x="146.484" y="263.672" width="8" height="8" rx="4" fill="#5C63EF"/>
<rect x="175.781" y="263.672" width="8" height="8" rx="4" fill="#5C63EF"/>
<rect x="205.079" y="263.672" width="8" height="8" rx="4" fill="#5C63EF"/>
<rect x="234.375" y="263.672" width="8" height="8" rx="4" fill="#5C63EF"/>
<rect x="263.672" y="263.672" width="8" height="8" rx="4" fill="#5C63EF"/>
<rect x="292.969" y="263.672" width="8" height="8" rx="4" fill="#5C63EF"/>
<rect x="322.267" y="263.672" width="8" height="8" rx="4" fill="#5C63EF"/>
<rect x="351.563" y="263.672" width="8" height="8" rx="4" fill="#5C63EF"/>
<rect x="380.86" y="263.672" width="8" height="8" rx="4" fill="#5C63EF"/>
<rect x="410.156" y="263.672" width="8" height="8" rx="4" fill="#5C63EF"/>
<rect x="439.453" y="263.672" width="8" height="8" rx="4" fill="#5C63EF"/>
</g>
</svg>
