<svg width="80" height="80" viewBox="0 0 80 80" fill="none" xmlns="http://www.w3.org/2000/svg">
<path d="M12.5 15H7.5C6.11929 15 5 16.1193 5 17.5V70C5 71.3807 6.11929 72.5 7.5 72.5H12.5C13.8807 72.5 15 71.3807 15 70V17.5C15 16.1193 13.8807 15 12.5 15Z" stroke="#5D5E7A" stroke-width="3.25" stroke-linejoin="round"/>
<path d="M17.5 62.5H37.5M17.5 35H37.5H17.5Z" stroke="#5D5E7A" stroke-width="3.25" stroke-linecap="round" stroke-linejoin="round"/>
<path d="M35 25H20C18.6193 25 17.5 26.1193 17.5 27.5V70C17.5 71.3807 18.6193 72.5 20 72.5H35C36.3807 72.5 37.5 71.3807 37.5 70V27.5C37.5 26.1193 36.3807 25 35 25Z" stroke="#5D5E7A" stroke-width="3.25" stroke-linejoin="round"/>
<path d="M52.5 7.5H42.5C41.1193 7.5 40 8.61929 40 10V70C40 71.3807 41.1193 72.5 42.5 72.5H52.5C53.8807 72.5 55 71.3807 55 70V10C55 8.61929 53.8807 7.5 52.5 7.5Z" stroke="#5D5E7A" stroke-width="3.25" stroke-linejoin="round"/>
<path d="M66.0094 15.0171L59.6969 15.6812C57.9594 15.864 56.7 17.489 56.8953 19.2905L62.3516 69.539C62.5485 71.3405 64.1282 72.664 65.8657 72.4827L72.1782 71.8187C73.9157 71.6359 75.175 70.0109 74.9797 68.2093L69.5313 17.9687C69.3266 16.1593 67.7469 14.8343 66.0094 15.0171Z" stroke="#5D5E7A" stroke-width="3.25" stroke-linejoin="round"/>
</svg>
